<svg width="27" height="26" viewBox="0 0 27 26" fill="none" xmlns="http://www.w3.org/2000/svg">
<path d="M16 5.62419H20.6242H16ZM25.2484 5.62419H20.6242H25.2484ZM20.6242 5.62419V1V5.62419ZM20.6242 5.62419V10.2484V5.62419Z" fill="white"/>
<path d="M16 5.62419H20.6242M20.6242 5.62419H25.2484M20.6242 5.62419V1M20.6242 5.62419V10.2484" stroke="white" stroke-width="2" stroke-linecap="round" stroke-linejoin="round"/>
<path d="M25 13C25 19.6274 19.6274 25 13 25C10.8143 25 8.76504 24.4156 7 23.3946L1.6 24.4L2.60538 19C1.58436 17.2349 1 15.1857 1 13C1 6.37258 6.37258 1 13 1" stroke="white" stroke-width="2" stroke-linecap="round" stroke-linejoin="round"/>
<path fill-rule="evenodd" clip-rule="evenodd" d="M8.41425 14.8285C8.03917 14.8285 7.67945 14.6795 7.41422 14.4143C7.149 14.1491 7 13.7893 7 13.4142C7 13.0392 7.149 12.6794 7.41422 12.4142C7.67945 12.149 8.03917 12 8.41425 12C8.78933 12 9.14905 12.149 9.41428 12.4142C9.6795 12.6794 9.8285 13.0392 9.8285 13.4142C9.8285 13.7893 9.6795 14.1491 9.41428 14.4143C9.14905 14.6795 8.78933 14.8285 8.41425 14.8285ZM13.1284 14.8285C12.7533 14.8285 12.3936 14.6795 12.1284 14.4143C11.8632 14.1491 11.7142 13.7893 11.7142 13.4142C11.7142 13.0392 11.8632 12.6794 12.1284 12.4142C12.3936 12.149 12.7533 12 13.1284 12C13.5035 12 13.8632 12.149 14.1284 12.4142C14.3937 12.6794 14.5427 13.0392 14.5427 13.4142C14.5427 13.7893 14.3937 14.1491 14.1284 14.4143C13.8632 14.6795 13.5035 14.8285 13.1284 14.8285ZM17.8426 14.8285C17.4675 14.8285 17.1078 14.6795 16.8426 14.4143C16.5773 14.1491 16.4283 13.7893 16.4283 13.4142C16.4283 13.0392 16.5773 12.6794 16.8426 12.4142C17.1078 12.149 17.4675 12 17.8426 12C18.2177 12 18.5774 12.149 18.8426 12.4142C19.1078 12.6794 19.2568 13.0392 19.2568 13.4142C19.2568 13.7893 19.1078 14.1491 18.8426 14.4143C18.5774 14.6795 18.2177 14.8285 17.8426 14.8285Z" fill="white"/>
</svg>
